<svg width="20" height="20" viewBox="0 0 20 20" fill="none" xmlns="http://www.w3.org/2000/svg">
<path d="M11.9328 15.8924C11.9328 16.4008 11.5995 17.0674 11.1745 17.3258L9.99948 18.0841C8.90781 18.7591 7.39114 18.0008 7.39114 16.6508V12.1924C7.39114 11.6008 7.05781 10.8424 6.71615 10.4258L3.51612 7.05911C3.09112 6.63411 2.75781 5.88412 2.75781 5.37578V3.44244C2.75781 2.43411 3.51616 1.67578 4.44116 1.67578H15.5578C16.4828 1.67578 17.2411 2.43411 17.2411 3.35911V5.20911C17.2411 5.88411 16.8161 6.72578 16.3995 7.14245" stroke="#344054" stroke-width="1.5" stroke-miterlimit="10" stroke-linecap="round" stroke-linejoin="round"/>
<path d="M13.3918 13.7669C14.8645 13.7669 16.0585 12.573 16.0585 11.1003C16.0585 9.62751 14.8645 8.43359 13.3918 8.43359C11.919 8.43359 10.7251 9.62751 10.7251 11.1003C10.7251 12.573 11.919 13.7669 13.3918 13.7669Z" stroke="#344054" stroke-width="1.5" stroke-linecap="round" stroke-linejoin="round"/>
<path d="M16.5584 14.2669L15.7251 13.4336" stroke="#344054" stroke-width="1.5" stroke-linecap="round" stroke-linejoin="round"/>
</svg>
