<svg width="150" height="40" viewBox="0 0 150 40" fill="none" xmlns="http://www.w3.org/2000/svg">
<path d="M26.984 3.33301H13.0173C6.95065 3.33301 3.33398 6.94967 3.33398 13.0163V26.9663C3.33398 33.0497 6.95065 36.6663 13.0173 36.6663H26.9673C33.034 36.6663 36.6507 33.0497 36.6507 26.983V13.0163C36.6673 6.94967 33.0507 3.33301 26.984 3.33301ZM24.434 22.883L22.3007 24.1163L20.1673 25.3497C17.4173 26.933 15.1673 25.633 15.1673 22.4663V19.9997V17.533C15.1673 14.3497 17.4173 13.0663 20.1673 14.6497L22.3007 15.883L24.434 17.1163C27.184 18.6997 27.184 21.2997 24.434 22.883Z" fill="white"/>
<path d="M56.4055 8.50781C56.3459 7.94957 56.0945 7.51491 55.6513 7.20384C55.2124 6.89276 54.6413 6.73722 53.9382 6.73722C53.4439 6.73722 53.0199 6.81179 52.6662 6.96094C52.3125 7.11008 52.0419 7.3125 51.8544 7.56818C51.6669 7.82386 51.571 8.11577 51.5668 8.44389C51.5668 8.71662 51.6286 8.95312 51.7521 9.15341C51.88 9.35369 52.0526 9.52415 52.2699 9.66477C52.4872 9.80114 52.728 9.91619 52.9922 10.0099C53.2564 10.1037 53.5227 10.1825 53.7912 10.2464L55.0185 10.5533C55.5128 10.6683 55.9879 10.8239 56.4439 11.0199C56.9041 11.2159 57.3153 11.4631 57.6776 11.7614C58.044 12.0597 58.3338 12.4197 58.5469 12.8416C58.7599 13.2635 58.8665 13.7578 58.8665 14.3246C58.8665 15.0916 58.6705 15.767 58.2784 16.3509C57.8864 16.9304 57.3196 17.3842 56.5781 17.7124C55.8409 18.0362 54.9482 18.1982 53.8999 18.1982C52.8814 18.1982 51.9972 18.0405 51.2472 17.7251C50.5014 17.4098 49.9176 16.9496 49.4957 16.3445C49.0781 15.7393 48.8523 15.0021 48.8182 14.1328H51.1513C51.1854 14.5888 51.326 14.968 51.5732 15.2706C51.8203 15.5732 52.142 15.799 52.5384 15.9482C52.9389 16.0973 53.3864 16.1719 53.8807 16.1719C54.3963 16.1719 54.848 16.0952 55.2358 15.9418C55.6278 15.7841 55.9347 15.5668 56.1562 15.2898C56.3778 15.0085 56.4908 14.6804 56.495 14.3054C56.4908 13.9645 56.3906 13.6832 56.1946 13.4616C55.9986 13.2358 55.7237 13.0483 55.37 12.8991C55.0206 12.7457 54.6115 12.6094 54.1428 12.4901L52.6534 12.1065C51.5753 11.8295 50.723 11.4098 50.0966 10.8473C49.4744 10.2805 49.1634 9.52841 49.1634 8.59091C49.1634 7.8196 49.3722 7.14418 49.7898 6.56463C50.2116 5.98509 50.7848 5.53551 51.5092 5.21591C52.2337 4.89204 53.054 4.73011 53.9702 4.73011C54.8991 4.73011 55.7131 4.89204 56.4119 5.21591C57.1151 5.53551 57.6669 5.98082 58.0675 6.55185C58.468 7.11861 58.6747 7.7706 58.6875 8.50781H56.4055ZM65.225 18.1918C64.2406 18.1918 63.3904 17.9872 62.6745 17.5781C61.9629 17.1648 61.4153 16.581 61.0318 15.8267C60.6483 15.0682 60.4565 14.1754 60.4565 13.1484C60.4565 12.1385 60.6483 11.2521 61.0318 10.4893C61.4196 9.7223 61.9608 9.12571 62.6554 8.69957C63.35 8.26918 64.166 8.05398 65.1035 8.05398C65.7086 8.05398 66.2797 8.15199 66.8166 8.34801C67.3578 8.53977 67.8351 8.83807 68.2484 9.2429C68.666 9.64773 68.9941 10.1634 69.2328 10.7898C69.4714 11.4119 69.5907 12.1534 69.5907 13.0142V13.7237H61.5431V12.1641H67.3727C67.3684 11.7209 67.2726 11.3267 67.0851 10.9815C66.8976 10.6321 66.6355 10.3572 66.2988 10.157C65.9664 9.95668 65.5787 9.85653 65.1355 9.85653C64.6625 9.85653 64.247 9.97159 63.889 10.2017C63.5311 10.4276 63.252 10.7259 63.0517 11.0966C62.8556 11.4631 62.7555 11.8658 62.7512 12.3047V13.6662C62.7512 14.2372 62.8556 14.7273 63.0645 15.1364C63.2733 15.5412 63.5652 15.8523 63.9402 16.0696C64.3152 16.2827 64.7541 16.3892 65.2569 16.3892C65.5936 16.3892 65.8983 16.3423 66.171 16.2486C66.4437 16.1506 66.6802 16.0078 66.8805 15.8203C67.0808 15.6328 67.2321 15.4006 67.3343 15.1236L69.4949 15.3665C69.3585 15.9375 69.0985 16.4361 68.715 16.8622C68.3358 17.2841 67.85 17.6122 67.2576 17.8466C66.6653 18.0767 65.9877 18.1918 65.225 18.1918ZM71.5483 18V8.18182H73.7599V9.85014H73.875C74.0795 9.28764 74.4183 8.84872 74.8913 8.53338C75.3643 8.21378 75.929 8.05398 76.5852 8.05398C77.25 8.05398 77.8104 8.21591 78.2663 8.53977C78.7266 8.85937 79.0504 9.29616 79.2379 9.85014H79.3402C79.5575 9.30469 79.924 8.87003 80.4396 8.54616C80.9595 8.21804 81.5753 8.05398 82.2869 8.05398C83.1903 8.05398 83.9276 8.33949 84.4986 8.91051C85.0696 9.48153 85.3551 10.3146 85.3551 11.4098V18H83.0348V11.7678C83.0348 11.1584 82.8729 10.7131 82.549 10.4318C82.2251 10.1463 81.8288 10.0036 81.3601 10.0036C80.8018 10.0036 80.3651 10.1783 80.0497 10.5277C79.7386 10.8729 79.5831 11.3224 79.5831 11.8764V18H77.3139V11.6719C77.3139 11.1648 77.1605 10.7599 76.8537 10.4574C76.5511 10.1548 76.1548 10.0036 75.6648 10.0036C75.3324 10.0036 75.0298 10.0888 74.7571 10.2592C74.4844 10.4254 74.267 10.6619 74.1051 10.9688C73.9432 11.2713 73.8622 11.625 73.8622 12.0298V18H71.5483ZM87.7026 18V8.18182H90.0165V18H87.7026ZM88.8659 6.78835C88.4995 6.78835 88.1841 6.6669 87.9199 6.42401C87.6557 6.17685 87.5236 5.88068 87.5236 5.53551C87.5236 5.18608 87.6557 4.88991 87.9199 4.64702C88.1841 4.39986 88.4995 4.27628 88.8659 4.27628C89.2367 4.27628 89.552 4.39986 89.812 4.64702C90.0762 4.88991 90.2083 5.18608 90.2083 5.53551C90.2083 5.88068 90.0762 6.17685 89.812 6.42401C89.552 6.6669 89.2367 6.78835 88.8659 6.78835ZM94.7099 12.2472V18H92.396V8.18182H94.6076V9.85014H94.7227C94.9485 9.30043 95.3086 8.86364 95.8029 8.53977C96.3015 8.21591 96.9173 8.05398 97.6502 8.05398C98.3278 8.05398 98.918 8.19886 99.4208 8.48864C99.9279 8.77841 100.32 9.19815 100.597 9.74787C100.878 10.2976 101.017 10.9645 101.012 11.7486V18H98.6985V12.1065C98.6985 11.4503 98.5281 10.9368 98.1871 10.5661C97.8505 10.1953 97.3839 10.0099 96.7873 10.0099C96.3825 10.0099 96.0224 10.0994 95.707 10.2784C95.396 10.4531 95.1509 10.7067 94.9719 11.0391C94.7972 11.3714 94.7099 11.7741 94.7099 12.2472ZM106.19 18.1982C105.568 18.1982 105.007 18.0874 104.509 17.8658C104.015 17.6399 103.623 17.3075 103.333 16.8686C103.047 16.4297 102.904 15.8885 102.904 15.245C102.904 14.6911 103.007 14.233 103.211 13.8707C103.416 13.5085 103.695 13.2188 104.049 13.0014C104.402 12.7841 104.801 12.62 105.244 12.5092C105.691 12.3942 106.154 12.3111 106.631 12.2599C107.206 12.2003 107.673 12.147 108.031 12.1001C108.389 12.049 108.649 11.9723 108.811 11.87C108.977 11.7635 109.06 11.5994 109.06 11.3778V11.3395C109.06 10.858 108.917 10.4851 108.632 10.2209C108.346 9.95668 107.935 9.82457 107.398 9.82457C106.831 9.82457 106.382 9.94815 106.049 10.1953C105.721 10.4425 105.5 10.7344 105.385 11.071L103.224 10.7642C103.395 10.1676 103.676 9.66903 104.068 9.26847C104.46 8.86364 104.939 8.56108 105.506 8.3608C106.073 8.15625 106.699 8.05398 107.385 8.05398C107.858 8.05398 108.329 8.10938 108.798 8.22017C109.267 8.33097 109.695 8.5142 110.083 8.76989C110.471 9.02131 110.782 9.36435 111.016 9.79901C111.255 10.2337 111.374 10.777 111.374 11.429V18H109.15V16.6513H109.073C108.932 16.924 108.734 17.1797 108.478 17.4183C108.227 17.6527 107.909 17.8423 107.526 17.9872C107.147 18.1278 106.701 18.1982 106.19 18.1982ZM106.791 16.4979C107.255 16.4979 107.658 16.4062 107.999 16.223C108.34 16.0355 108.602 15.7884 108.785 15.4815C108.973 15.1747 109.066 14.8402 109.066 14.478V13.321C108.994 13.3807 108.87 13.4361 108.696 13.4872C108.525 13.5384 108.333 13.5831 108.12 13.6214C107.907 13.6598 107.696 13.6939 107.488 13.7237C107.279 13.7536 107.098 13.7791 106.944 13.8004C106.599 13.8473 106.29 13.924 106.017 14.0305C105.745 14.1371 105.529 14.2862 105.372 14.478C105.214 14.6655 105.135 14.9084 105.135 15.2067C105.135 15.6328 105.291 15.9545 105.602 16.1719C105.913 16.3892 106.309 16.4979 106.791 16.4979ZM113.701 18V8.18182H115.944V9.81818H116.047C116.225 9.25142 116.532 8.81463 116.967 8.50781C117.406 8.19673 117.907 8.04119 118.469 8.04119C118.597 8.04119 118.74 8.04758 118.897 8.06037C119.059 8.06889 119.194 8.08381 119.3 8.10511V10.2337C119.202 10.1996 119.047 10.1697 118.833 10.1442C118.625 10.1143 118.422 10.0994 118.226 10.0994C117.804 10.0994 117.425 10.1911 117.088 10.3743C116.756 10.5533 116.494 10.8026 116.302 11.1222C116.11 11.4418 116.015 11.8104 116.015 12.228V18H113.701ZM60.9886 29.4545C60.9886 30.8651 60.7244 32.0732 60.196 33.0788C59.6719 34.0803 58.956 34.8473 58.0483 35.38C57.1449 35.9126 56.12 36.179 54.9737 36.179C53.8274 36.179 52.8004 35.9126 51.8928 35.38C50.9893 34.843 50.2734 34.0739 49.745 33.0724C49.2209 32.0668 48.9588 30.8608 48.9588 29.4545C48.9588 28.044 49.2209 26.8381 49.745 25.8366C50.2734 24.831 50.9893 24.0618 51.8928 23.5291C52.8004 22.9964 53.8274 22.7301 54.9737 22.7301C56.12 22.7301 57.1449 22.9964 58.0483 23.5291C58.956 24.0618 59.6719 24.831 60.196 25.8366C60.7244 26.8381 60.9886 28.044 60.9886 29.4545ZM58.6044 29.4545C58.6044 28.4616 58.4489 27.6243 58.1378 26.9425C57.831 26.2564 57.4048 25.7386 56.8594 25.3892C56.3139 25.0355 55.6854 24.8587 54.9737 24.8587C54.2621 24.8587 53.6335 25.0355 53.0881 25.3892C52.5426 25.7386 52.1143 26.2564 51.8033 26.9425C51.4964 27.6243 51.343 28.4616 51.343 29.4545C51.343 30.4474 51.4964 31.2869 51.8033 31.973C52.1143 32.6548 52.5426 33.1726 53.0881 33.5263C53.6335 33.8757 54.2621 34.0504 54.9737 34.0504C55.6854 34.0504 56.3139 33.8757 56.8594 33.5263C57.4048 33.1726 57.831 32.6548 58.1378 31.973C58.4489 31.2869 58.6044 30.4474 58.6044 29.4545ZM65.4423 30.2472V36H63.1284V26.1818H65.34V27.8501H65.4551C65.6809 27.3004 66.041 26.8636 66.5353 26.5398C67.0339 26.2159 67.6497 26.054 68.3826 26.054C69.0602 26.054 69.6504 26.1989 70.1532 26.4886C70.6603 26.7784 71.0524 27.1982 71.3294 27.7479C71.6106 28.2976 71.7491 28.9645 71.7449 29.7486V36H69.4309V30.1065C69.4309 29.4503 69.2605 28.9368 68.9196 28.5661C68.5829 28.1953 68.1163 28.0099 67.5197 28.0099C67.1149 28.0099 66.7548 28.0994 66.4395 28.2784C66.1284 28.4531 65.8833 28.7067 65.7044 29.0391C65.5297 29.3714 65.4423 29.7741 65.4423 30.2472ZM83.1003 36H78.6642V22.9091H83.1898C84.4895 22.9091 85.606 23.1712 86.5392 23.6953C87.4767 24.2152 88.1969 24.9631 88.6998 25.9389C89.2026 26.9148 89.454 28.0824 89.454 29.4418C89.454 30.8054 89.2005 31.9773 88.6934 32.9574C88.1905 33.9375 87.464 34.6896 86.5137 35.2138C85.5676 35.7379 84.4299 36 83.1003 36ZM81.0357 33.9482H82.9853C83.8972 33.9482 84.6578 33.782 85.2672 33.4496C85.8766 33.1129 86.3347 32.6122 86.6415 31.9474C86.9483 31.2784 87.1017 30.4432 87.1017 29.4418C87.1017 28.4403 86.9483 27.6094 86.6415 26.9489C86.3347 26.2841 85.8809 25.7876 85.28 25.4595C84.6834 25.1271 83.9419 24.9609 83.0556 24.9609H81.0357V33.9482ZM95.9515 36.1918C94.9672 36.1918 94.117 35.9872 93.4011 35.5781C92.6895 35.1648 92.1419 34.581 91.7583 33.8267C91.3748 33.0682 91.1831 32.1754 91.1831 31.1484C91.1831 30.1385 91.3748 29.2521 91.7583 28.4893C92.1461 27.7223 92.6873 27.1257 93.3819 26.6996C94.0765 26.2692 94.8926 26.054 95.8301 26.054C96.4352 26.054 97.0062 26.152 97.5431 26.348C98.0843 26.5398 98.5616 26.8381 98.975 27.2429C99.3926 27.6477 99.7207 28.1634 99.9593 28.7898C100.198 29.4119 100.317 30.1534 100.317 31.0142V31.7237H92.2697V30.1641H98.0993C98.095 29.7209 97.9991 29.3267 97.8116 28.9815C97.6241 28.6321 97.362 28.3572 97.0254 28.157C96.693 27.9567 96.3052 27.8565 95.862 27.8565C95.389 27.8565 94.9735 27.9716 94.6156 28.2017C94.2576 28.4276 93.9785 28.7259 93.7782 29.0966C93.5822 29.4631 93.4821 29.8658 93.4778 30.3047V31.6662C93.4778 32.2372 93.5822 32.7273 93.791 33.1364C93.9998 33.5412 94.2917 33.8523 94.6667 34.0696C95.0417 34.2827 95.4806 34.3892 95.9835 34.3892C96.3201 34.3892 96.6248 34.3423 96.8976 34.2486C97.1703 34.1506 97.4068 34.0078 97.6071 33.8203C97.8074 33.6328 97.9586 33.4006 98.0609 33.1236L100.221 33.3665C100.085 33.9375 99.8251 34.4361 99.4416 34.8622C99.0623 35.2841 98.5765 35.6122 97.9842 35.8466C97.3919 36.0767 96.7143 36.1918 95.9515 36.1918ZM102.275 36V26.1818H104.487V27.8501H104.602C104.806 27.2876 105.145 26.8487 105.618 26.5334C106.091 26.2138 106.656 26.054 107.312 26.054C107.977 26.054 108.537 26.2159 108.993 26.5398C109.453 26.8594 109.777 27.2962 109.964 27.8501H110.067C110.284 27.3047 110.651 26.87 111.166 26.5462C111.686 26.218 112.302 26.054 113.013 26.054C113.917 26.054 114.654 26.3395 115.225 26.9105C115.796 27.4815 116.082 28.3146 116.082 29.4098V36H113.761V29.7678C113.761 29.1584 113.599 28.7131 113.276 28.4318C112.952 28.1463 112.555 28.0036 112.087 28.0036C111.528 28.0036 111.092 28.1783 110.776 28.5277C110.465 28.8729 110.31 29.3224 110.31 29.8764V36H108.04V29.6719C108.04 29.1648 107.887 28.7599 107.58 28.4574C107.278 28.1548 106.881 28.0036 106.391 28.0036C106.059 28.0036 105.756 28.0888 105.484 28.2592C105.211 28.4254 104.994 28.6619 104.832 28.9688C104.67 29.2713 104.589 29.625 104.589 30.0298V36H102.275ZM121.254 36.1982C120.632 36.1982 120.072 36.0874 119.573 35.8658C119.079 35.6399 118.687 35.3075 118.397 34.8686C118.112 34.4297 117.969 33.8885 117.969 33.245C117.969 32.6911 118.071 32.233 118.276 31.8707C118.48 31.5085 118.759 31.2188 119.113 31.0014C119.467 30.7841 119.865 30.62 120.308 30.5092C120.756 30.3942 121.218 30.3111 121.695 30.2599C122.271 30.2003 122.737 30.147 123.095 30.1001C123.453 30.049 123.713 29.9723 123.875 29.87C124.041 29.7635 124.124 29.5994 124.124 29.3778V29.3395C124.124 28.858 123.982 28.4851 123.696 28.2209C123.411 27.9567 122.999 27.8246 122.463 27.8246C121.896 27.8246 121.446 27.9482 121.114 28.1953C120.786 28.4425 120.564 28.7344 120.449 29.071L118.289 28.7642C118.459 28.1676 118.74 27.669 119.132 27.2685C119.524 26.8636 120.004 26.5611 120.57 26.3608C121.137 26.1562 121.764 26.054 122.45 26.054C122.923 26.054 123.394 26.1094 123.862 26.2202C124.331 26.331 124.759 26.5142 125.147 26.7699C125.535 27.0213 125.846 27.3643 126.08 27.799C126.319 28.2337 126.438 28.777 126.438 29.429V36H124.214V34.6513H124.137C123.997 34.924 123.798 35.1797 123.543 35.4183C123.291 35.6527 122.974 35.8423 122.59 35.9872C122.211 36.1278 121.766 36.1982 121.254 36.1982ZM121.855 34.4979C122.32 34.4979 122.722 34.4062 123.063 34.223C123.404 34.0355 123.666 33.7884 123.85 33.4815C124.037 33.1747 124.131 32.8402 124.131 32.478V31.321C124.058 31.3807 123.935 31.4361 123.76 31.4872C123.59 31.5384 123.398 31.5831 123.185 31.6214C122.972 31.6598 122.761 31.6939 122.552 31.7237C122.343 31.7536 122.162 31.7791 122.009 31.8004C121.664 31.8473 121.355 31.924 121.082 32.0305C120.809 32.1371 120.594 32.2862 120.436 32.478C120.279 32.6655 120.2 32.9084 120.2 33.2067C120.2 33.6328 120.355 33.9545 120.666 34.1719C120.977 34.3892 121.374 34.4979 121.855 34.4979ZM131.079 30.2472V36H128.765V26.1818H130.977V27.8501H131.092C131.318 27.3004 131.678 26.8636 132.172 26.5398C132.671 26.2159 133.286 26.054 134.019 26.054C134.697 26.054 135.287 26.1989 135.79 26.4886C136.297 26.7784 136.689 27.1982 136.966 27.7479C137.247 28.2976 137.386 28.9645 137.382 29.7486V36H135.068V30.1065C135.068 29.4503 134.897 28.9368 134.556 28.5661C134.22 28.1953 133.753 28.0099 133.156 28.0099C132.752 28.0099 132.392 28.0994 132.076 28.2784C131.765 28.4531 131.52 28.7067 131.341 29.0391C131.166 29.3714 131.079 29.7741 131.079 30.2472ZM143.377 36.1726C142.606 36.1726 141.916 35.9744 141.306 35.5781C140.697 35.1818 140.215 34.6065 139.862 33.8523C139.508 33.098 139.331 32.1818 139.331 31.1037C139.331 30.0128 139.51 29.0923 139.868 28.3423C140.23 27.5881 140.718 27.0192 141.332 26.6357C141.945 26.2479 142.629 26.054 143.384 26.054C143.959 26.054 144.432 26.152 144.803 26.348C145.173 26.5398 145.468 26.772 145.685 27.0447C145.902 27.3132 146.07 27.5668 146.19 27.8054H146.286V22.9091H148.606V36H146.33V34.4531H146.19C146.07 34.6918 145.898 34.9453 145.672 35.2138C145.446 35.478 145.148 35.7038 144.777 35.8913C144.406 36.0788 143.94 36.1726 143.377 36.1726ZM144.023 34.2741C144.513 34.2741 144.931 34.142 145.276 33.8778C145.621 33.6094 145.883 33.2365 146.062 32.7592C146.241 32.282 146.33 31.7259 146.33 31.0909C146.33 30.456 146.241 29.9041 146.062 29.4354C145.887 28.9666 145.627 28.6023 145.282 28.3423C144.941 28.0824 144.521 27.9524 144.023 27.9524C143.507 27.9524 143.077 28.0866 142.732 28.3551C142.387 28.6236 142.127 28.9943 141.952 29.4673C141.777 29.9403 141.69 30.4815 141.69 31.0909C141.69 31.7045 141.777 32.2521 141.952 32.7337C142.131 33.2109 142.393 33.5881 142.738 33.8651C143.088 34.1378 143.516 34.2741 144.023 34.2741Z" fill="white"/>
</svg>
