<svg width="57" height="56" viewBox="0 0 57 56" fill="none" xmlns="http://www.w3.org/2000/svg">
<path d="M1 8C1 3.85786 4.35786 0.5 8.5 0.5H48.5C52.6421 0.5 56 3.85786 56 8V48C56 52.1421 52.6421 55.5 48.5 55.5H8.5C4.35786 55.5 1 52.1421 1 48V8Z" fill="white"/>
<path d="M1 8C1 3.85786 4.35786 0.5 8.5 0.5H48.5C52.6421 0.5 56 3.85786 56 8V48C56 52.1421 52.6421 55.5 48.5 55.5H8.5C4.35786 55.5 1 52.1421 1 48V8Z" stroke="#D0D5DD"/>
<path d="M42.7179 28.0003C42.7179 31.4312 39.9261 34.2225 36.4957 34.2225H32.0512C31.5599 34.2225 31.1623 33.8245 31.1623 33.3337C31.1623 32.8428 31.5599 32.4448 32.0512 32.4448H36.4957C38.9461 32.4448 40.9401 30.4508 40.9401 28.0003C40.9401 25.5499 38.9461 23.5559 36.4957 23.5559H35.6068C35.1154 23.5559 34.7179 23.1579 34.7179 22.667C34.7179 19.2361 31.9261 16.4448 28.4957 16.4448C25.0652 16.4448 22.2734 19.2361 22.2734 22.667C22.2734 23.1579 21.8759 23.5559 21.3845 23.5559H20.4957C18.0452 23.5559 16.0512 25.5499 16.0512 28.0003C16.0512 30.4508 18.0452 32.4448 20.4957 32.4448H24.9401C25.4314 32.4448 25.829 32.8428 25.829 33.3337C25.829 33.8245 25.4314 34.2225 24.9401 34.2225H20.4957C17.0652 34.2225 14.2734 31.4312 14.2734 28.0003C14.2734 24.5694 17.0652 21.7781 20.4957 21.7781H20.5452C20.9888 17.7837 24.3845 14.667 28.4957 14.667C32.6068 14.667 36.0026 17.7837 36.4461 21.7781H36.4957C39.9263 21.7781 42.7179 24.5694 42.7179 28.0003ZM31.4228 30.4065C31.5963 30.5801 31.8239 30.667 32.0512 30.667C32.2785 30.667 32.5061 30.5801 32.6797 30.4065C33.027 30.0592 33.027 29.4968 32.6797 29.1497L29.1241 25.5941C28.7768 25.2468 28.2143 25.2468 27.8672 25.5941L24.3117 29.1497C23.9643 29.497 23.9643 30.0594 24.3117 30.4065C24.659 30.7537 25.2214 30.7539 25.5685 30.4065L27.6068 28.3683V40.4448C27.6068 40.9357 28.0043 41.3337 28.4957 41.3337C28.987 41.3337 29.3846 40.9357 29.3846 40.4448V28.3683L31.4228 30.4065Z" fill="#0D6999"/>
</svg>
