<svg width="20" height="20" viewBox="0 0 20 20" fill="none" xmlns="http://www.w3.org/2000/svg">
<path d="M15.8333 1.81736H10.3933C10.265 1.81736 10.135 1.78463 10.0208 1.7219L7.39333 0.289104C7.0475 0.100005 6.66083 3.03872e-07 6.27333 3.03872e-07H4.16667C1.86917 -0.000908828 0 2.03827 0 4.54475V15.4543C0 17.9608 1.86917 20 4.16667 20H6.66667C7.12667 20 7.5 19.5936 7.5 19.0909C7.5 18.5881 7.12667 18.1817 6.66667 18.1817H4.16667C2.78833 18.1817 1.66667 16.958 1.66667 15.4543V7.27215H18.3333V15.4543C18.3333 16.958 17.2117 18.1817 15.8333 18.1817H13.3333C12.8733 18.1817 12.5 18.5881 12.5 19.0909C12.5 19.5936 12.8733 20 13.3333 20H15.8333C18.1308 20 20 17.9608 20 15.4543V6.36302C20 3.85654 18.1308 1.81736 15.8333 1.81736ZM1.66667 4.54475C1.66667 3.04105 2.78833 1.81736 4.16667 1.81736H6.27333C6.40167 1.81736 6.53 1.85008 6.64583 1.91372L9.27583 3.34742C9.62167 3.53562 10.0075 3.63471 10.3933 3.63471H15.8333C16.9183 3.63471 17.835 4.39747 18.18 5.45297H1.66667V4.54475ZM11.9108 13.5415L10.8333 12.366V19.0909C10.8333 19.5936 10.46 20 10 20C9.54 20 9.16667 19.5936 9.16667 19.0909V12.366L8.08917 13.5415C7.92667 13.7188 7.71333 13.8079 7.5 13.8079C7.28667 13.8079 7.07333 13.7188 6.91083 13.5415C6.585 13.1861 6.585 12.6115 6.91083 12.256L8.255 10.7896C9.18667 9.77226 10.8125 9.77226 11.745 10.7896L13.0892 12.256C13.415 12.6115 13.415 13.1861 13.0892 13.5415C12.7633 13.897 12.2367 13.897 11.9108 13.5415Z" fill="#B4D1DF"/>
</svg>
